<?xml version="1.0" encoding="UTF-8" standalone="no"?>
<svg
   xmlns:dc="http://purl.org/dc/elements/1.1/"
   xmlns:cc="http://creativecommons.org/ns#"
   xmlns:rdf="http://www.w3.org/1999/02/22-rdf-syntax-ns#"
   xmlns:svg="http://www.w3.org/2000/svg"
   xmlns="http://www.w3.org/2000/svg"
   xmlns:sodipodi="http://sodipodi.sourceforge.net/DTD/sodipodi-0.dtd"
   xmlns:inkscape="http://www.inkscape.org/namespaces/inkscape"
   width="100"
   height="23"
   viewBox="0 0 26.458333 6.0854166"
   version="1.1"
   id="svg8"
   inkscape:version="1.0.2-2 (e86c870879, 2021-01-15)"
   sodipodi:docname="Supermercados Peruanos logo.svg">
  <title
     id="title16">Tiendas Mass logo</title>
  <defs
     id="defs2" />
  <sodipodi:namedview
     id="base"
     pagecolor="#ffffff"
     bordercolor="#666666"
     borderopacity="1.0"
     inkscape:pageopacity="0"
     inkscape:pageshadow="2"
     inkscape:zoom="5.12"
     inkscape:cx="110.70762"
     inkscape:cy="3.8394502"
     inkscape:document-units="px"
     inkscape:current-layer="layer1"
     inkscape:document-rotation="0"
     showgrid="false"
     units="px"
     inkscape:showpageshadow="false"
     inkscape:window-width="1366"
     inkscape:window-height="745"
     inkscape:window-x="-8"
     inkscape:window-y="-8"
     inkscape:window-maximized="1"
     objecttolerance="11.8"
     guidetolerance="10.6" />
  <metadata
     id="metadata5">
    <rdf:RDF>
      <cc:Work
         rdf:about="">
        <dc:format>image/svg+xml</dc:format>
        <dc:type
           rdf:resource="http://purl.org/dc/dcmitype/StillImage" />
        <dc:title>Tiendas Mass logo</dc:title>
        <cc:license
           rdf:resource="http://scripts.sil.org/OFL" />
        <dc:date>17 de marzo 2021</dc:date>
      </cc:Work>
      <cc:License
         rdf:about="http://scripts.sil.org/OFL">
        <cc:permits
           rdf:resource="http://scripts.sil.org/pub/OFL/Reproduction" />
        <cc:permits
           rdf:resource="http://scripts.sil.org/pub/OFL/Distribution" />
        <cc:permits
           rdf:resource="http://scripts.sil.org/pub/OFL/Embedding" />
        <cc:permits
           rdf:resource="http://scripts.sil.org/pub/OFL/DerivativeWorks" />
        <cc:requires
           rdf:resource="http://scripts.sil.org/pub/OFL/Notice" />
        <cc:requires
           rdf:resource="http://scripts.sil.org/pub/OFL/Attribution" />
        <cc:requires
           rdf:resource="http://scripts.sil.org/pub/OFL/ShareAlike" />
        <cc:requires
           rdf:resource="http://scripts.sil.org/pub/OFL/DerivativeRenaming" />
        <cc:requires
           rdf:resource="http://scripts.sil.org/pub/OFL/BundlingWhenSelling" />
      </cc:License>
    </rdf:RDF>
  </metadata>
  <g
     inkscape:label="Capa 1"
     inkscape:groupmode="layer"
     id="layer1">
    <g
       id="rect47"
       style="opacity:1"
       inkscape:transform-center-x="0.52916666"
       inkscape:transform-center-y="0.79374994"
       transform="translate(-26.51797,125.72359)" />
    <g
       id="rect77"
       transform="matrix(0.98179228,-0.18995768,0,1,-32.808334,75.670834)"
       style="opacity:1" />
    <path
       id="path7-0"
       style="fill:#2d3f87;fill-opacity:1;stroke-width:0.0472708"
       d="M 5.7298657,0.02198682 C 5.1985409,1.0917275 4.6757257,2.1657167 4.1590544,3.2425481 4.0612037,2.1713892 3.9387352,1.1021501 3.8139402,0.03382772 c -0.5663054,0 -1.1326084,4.5564e-4 -1.6989139,-4.8238e-4 C 1.4357436,2.0026513 0.75787758,3.9724067 0.08048502,5.9421858 c 0.55117877,9.563e-4 1.10239178,1.2e-5 1.65404308,4.826e-4 0.2892983,-0.9851256 0.5993745,-1.9645787 0.8773277,-2.9534857 0.1091958,0.9832347 0.1919424,1.969778 0.295466,2.9534857 0.4849997,-0.00895 0.9695384,-0.015567 1.4540655,-0.012258 0.4552183,-0.984653 0.9028666,-1.97265 1.3632852,-2.9549393 -0.059562,0.98418 -0.1054319,1.9698258 -0.1479755,2.955424 0.5592149,0.00754 1.1174711,-0.00945 1.6766861,-0.010871 C 7.3134162,3.9545006 7.3592502,1.987996 7.4107757,0.02247172 6.8501426,0.02151952 6.2900263,0.02246005 5.7298657,0.02198933 Z M 25.893306,0.60911081 c -0.02025,-4.4216e-4 -0.0405,1.0639e-4 -0.06059,0.001458 -0.681174,0.0155998 -1.34481,0.20892848 -1.972568,0.46324579 -1.479575,0.6173559 -2.762499,1.6227566 -3.9022,2.7359863 C 19.814717,3.4675593 19.667219,3.1267933 19.532024,2.7812433 19.471045,2.6635387 19.406295,2.5041951 19.259755,2.479614 c -0.159775,0.01229 -0.241607,0.1867433 -0.231208,0.3309196 0.03735,0.6811736 0.0894,1.3618364 0.155108,2.0411199 0.03357,0.3110431 0.05952,0.6305935 0.183845,0.9217821 0.05011,0.1129778 0.116263,0.2354122 0.23633,0.2864653 0.132832,0.048218 0.286018,-0.031636 0.347471,-0.1540695 0.477435,-0.7903697 0.9752,-1.5830976 1.644555,-2.2278718 0.450019,-0.4249657 0.965249,-0.7729202 1.477193,-1.1170524 0.86742,-0.566778 1.82612,-0.9978407 2.835354,-1.2389225 0.126214,-0.029308 0.258056,-0.072358 0.344561,-0.175881 0.09359,-0.1021052 0.132374,-0.27792597 0.02791,-0.38617654 C 26.177876,0.65982907 26.035067,0.61216752 25.893306,0.60911081 Z M 17.03375,1.3685151 c -0.226464,7.154e-4 -0.452538,0.01993 -0.67548,0.063567 -0.367294,0.072797 -0.727041,0.2349291 -0.985141,0.512409 -0.342241,0.3720223 -0.452387,0.9312525 -0.300174,1.4105795 0.08508,0.2788984 0.283109,0.5048369 0.500083,0.6920295 0.12196,0.1125041 0.268541,0.2070704 0.350792,0.3555004 0.0468,0.082248 0.01795,0.2023341 -0.08226,0.2269149 -0.333733,0.1214861 -0.689663,-0.00754 -1.008269,-0.1182008 -0.08603,0.4604184 -0.185802,0.9185048 -0.276562,1.3784506 0.492089,0.1063589 1.004969,0.1328061 1.502259,0.045352 0.416929,-0.078467 0.831033,-0.2561807 1.121276,-0.5743143 0.380058,-0.3871486 0.51151,-1.0083408 0.287919,-1.5075213 -0.153635,-0.3602015 -0.47225,-0.6012544 -0.742167,-0.8688078 -0.07989,-0.074215 -0.175852,-0.2273499 -0.052,-0.307238 0.291189,-0.1408671 0.626789,-0.033585 0.920814,0.048194 0.104468,-0.4263836 0.206102,-0.853682 0.308207,-1.2805382 -0.286373,-0.047596 -0.578127,-0.077297 -0.869296,-0.076377 z m -2.921078,0.010526 c -0.172998,5.491e-4 -0.345801,0.011577 -0.517395,0.034623 -0.411257,0.057197 -0.828175,0.2084905 -1.123146,0.5110241 -0.480272,0.4821633 -0.540355,1.3358591 -0.09743,1.8619843 0.170176,0.2254821 0.427324,0.3663385 0.597027,0.5913477 0.06901,0.082248 0.05577,0.2255171 -0.05768,0.2604978 -0.332315,0.1219588 -0.691045,-0.00151 -1.006815,-0.1191702 -0.09502,0.4604184 -0.18673,0.9217831 -0.281271,1.3826741 0.79037,0.15363 1.689902,0.1649812 2.376748,-0.3134002 C 14.4064,5.3078313 14.676793,4.8223947 14.643703,4.3246324 14.641792,3.9511919 14.435274,3.615075 14.178592,3.3583942 14.026853,3.1953096 13.833034,3.0709735 13.709184,2.8833077 c -0.06807,-0.089342 0.0047,-0.2080084 0.103521,-0.2297532 0.279371,-0.077997 0.574818,-0.00564 0.842844,0.083232 0.124322,-0.4216567 0.20844,-0.854697 0.318109,-1.2806077 -0.283921,-0.04993 -0.572657,-0.078057 -0.860986,-0.077138 z m -3.691077,0.013848 c -0.07851,-4.155e-4 -0.157031,2.129e-4 -0.235502,0.00187 C 9.5762999,1.4136665 8.9579597,1.6103086 8.4937595,2.0163659 7.8886919,2.5283096 7.5752805,3.3120631 7.4953925,4.0863604 7.4504835,4.5623786 7.4420241,5.0761831 7.6745972,5.5087113 7.845245,5.8362984 8.2158083,6.0211723 8.5783762,6.0150271 9.053449,6.0410319 9.5063484,5.8056157 9.829209,5.4695192 9.7880801,5.6184229 9.7516765,5.7687324 9.7143319,5.919055 10.232893,5.9157366 10.751416,5.8996671 11.269978,5.9077018 11.504441,4.4536484 11.779106,3.0066996 12.05895,1.561155 11.52083,1.4498883 10.971161,1.3958027 10.421595,1.3928891 Z m -0.294636,1.3073355 c 0.05149,4.61e-4 0.103174,0.00596 0.154138,0.016688 C 10.174737,3.2714 9.9327151,3.7979971 9.5994557,4.2522703 9.4793873,4.4016466 9.3465405,4.575643 9.146112,4.6110953 9.062915,4.5453896 9.0770999,4.4195885 9.0671727,4.3250463 9.0770979,3.8400471 9.2061668,3.3305194 9.5342273,2.9608608 9.6836326,2.7907153 9.9038303,2.6982293 10.126959,2.7002246 Z" />
  </g>
</svg>
